<svg width="80" height="80" viewBox="0 0 80 80" fill="none" xmlns="http://www.w3.org/2000/svg">
<path d="M29.6875 57.3958L57.3958 39.5833L29.6875 21.7708V57.3958ZM39.5833 79.1667C34.1076 79.1667 28.9618 78.1269 24.1458 76.0475C19.3299 73.9681 15.1406 71.1484 11.5781 67.5885C8.01563 64.026 5.19597 59.8368 3.11917 55.0208C1.04236 50.2049 0.00263889 45.059 0 39.5833C0 34.1076 1.03972 28.9618 3.11917 24.1458C5.19861 19.3299 8.01826 15.1406 11.5781 11.5781C15.1406 8.01563 19.3299 5.19597 24.1458 3.11917C28.9618 1.04236 34.1076 0.00263889 39.5833 0C45.059 0 50.2049 1.03972 55.0208 3.11917C59.8368 5.19861 64.026 8.01826 67.5885 11.5781C71.151 15.1406 73.972 19.3299 76.0515 24.1458C78.1309 28.9618 79.1693 34.1076 79.1667 39.5833C79.1667 45.059 78.1269 50.2049 76.0475 55.0208C73.9681 59.8368 71.1484 64.026 67.5885 67.5885C64.026 71.151 59.8368 73.972 55.0208 76.0515C50.2049 78.1309 45.059 79.1693 39.5833 79.1667Z" fill="#BDBDBD" fill-opacity="0.87"/>
</svg>
